HIERARCHY
ROOT Hips
{
  OFFSET 53.2159 58.2879 -7.51
  CHANNELS 6 Xposition Yposition Zposition Zrotation Xrotation Yrotation
  JOINT spine
  {
    OFFSET 0 6.84637 0.3937
    CHANNELS 3 Zrotation Xrotation Yrotation
    JOINT spine1
    {
      OFFSET 0 9.49621 0
      CHANNELS 3 Zrotation Xrotation Yrotation
      JOINT spine2
      {
        OFFSET 0 9.09909 0
        CHANNELS 3 Zrotation Xrotation Yrotation
        JOINT Neck
        {
          OFFSET 0 23.3612 1.11378
          CHANNELS 3 Zrotation Xrotation Yrotation
          JOINT Head
          {
            OFFSET 0 7.05802 0
            CHANNELS 3 Zrotation Xrotation Yrotation
            End Site
            {
              OFFSET 0 17.0844 -5.63419
            }
          }
        }
        JOINT RightShoulder
        {
          OFFSET -3.83136 9.82631 -0.533491
          CHANNELS 3 Zrotation Xrotation Yrotation
          JOINT RightArm
          {
            OFFSET 0 12.8881 0
            CHANNELS 3 Zrotation Xrotation Yrotation
            JOINT RightArmRoll
            {
              OFFSET 0 6.50617 0
              CHANNELS 3 Zrotation Xrotation Yrotation
              JOINT RightForeArm
              {
                OFFSET 0 18.9501 0
                CHANNELS 3 Zrotation Xrotation Yrotation
                JOINT RightForeArmRoll
                {
                  OFFSET 0 7.30093 0
                  CHANNELS 3 Zrotation Xrotation Yrotation
                  JOINT RightHand
                  {
                    OFFSET 0 14.6514 0
                    CHANNELS 3 Zrotation Xrotation Yrotation
                    End Site
                    {
                      OFFSET 0 0 0
                    }
                  }
                }
              }
            }
          }
        }
        JOINT LeftShoulder
        {
          OFFSET 3.83136 9.82631 -0.533491
          CHANNELS 3 Zrotation Xrotation Yrotation
          JOINT LeftArm
          {
            OFFSET 0 12.8881 0
            CHANNELS 3 Zrotation Xrotation Yrotation
            JOINT LeftArmRoll
            {
              OFFSET 0 6.50617 0
              CHANNELS 3 Zrotation Xrotation Yrotation
              JOINT LeftForeArm
              {
                OFFSET 0 18.9501 0
                CHANNELS 3 Zrotation Xrotation Yrotation
                JOINT LeftForeArmRoll
                {
                  OFFSET 0 7.30092 0
                  CHANNELS 3 Zrotation Xrotation Yrotation
                  JOINT LeftHand
                  {
                    OFFSET 0 14.6514 0
                    CHANNELS 3 Zrotation Xrotation Yrotation
                    End Site
                    {
                      OFFSET 0 0 0
                    }
                  }
                }
              }
            }
          }
        }
      }
    }
  }
  JOINT RightUpLeg
  {
    OFFSET -6.06837 -1.11278 -0.933477
    CHANNELS 3 Zrotation Xrotation Yrotation
    JOINT RightUpLegRoll
    {
      OFFSET 0 17.1796 0
      CHANNELS 3 Zrotation Xrotation Yrotation
      JOINT RightLeg
      {
        OFFSET 0 -21.2743 0
        CHANNELS 3 Zrotation Xrotation Yrotation
        JOINT RightLegRoll
        {
          OFFSET 0 21.3439 0
          CHANNELS 3 Zrotation Xrotation Yrotation
          JOINT RightFoot
          {
            OFFSET 0 17.7652 0
            CHANNELS 3 Zrotation Xrotation Yrotation
            JOINT RightToeBase
            {
              OFFSET 0 14.8508 0
              CHANNELS 3 Zrotation Xrotation Yrotation
              End Site
              {
                OFFSET 0.0062947 7.19214 -0.829004
              }
            }
          }
        }
      }
    }
  }
  JOINT LeftUpLeg
  {
    OFFSET 6.06837 -1.11278 -0.933477
    CHANNELS 3 Zrotation Xrotation Yrotation
    JOINT LeftUpLegRoll
    {
      OFFSET 0 17.1797 0
      CHANNELS 3 Zrotation Xrotation Yrotation
      JOINT LeftLeg
      {
        OFFSET 0 21.2742 0
        CHANNELS 3 Zrotation Xrotation Yrotation
        JOINT LeftLegRoll
        {
          OFFSET 0 21.5412 0
          CHANNELS 3 Zrotation Xrotation Yrotation
          JOINT LeftFoot
          {
            OFFSET 0 17.5679 0
            CHANNELS 3 Zrotation Xrotation Yrotation
            JOINT LeftToeBase
            {
              OFFSET 0 14.8508 0
              CHANNELS 3 Zrotation Xrotation Yrotation
              End Site
              {
                OFFSET -0.0282102 7.19213 -0.829005
              }
            }
          }
        }
      }
    }
  }
}
MOTION
Frames: 4
Frame Time: 0.00208333
52.2848 65.6386 -0.360292 -3.75823 37.195 2.19082 0.459473 2.53711 0.796886 0.88424 9.08289 1.51857 0.86843 10.7276 1.5069 -32.8711 61.9281 20.3791 14.0039 -11.107 -0.731267 26.4212 -4.47746 0.144603 125.684 21.5988 -70.9236 1.99674e-007 1.79674e-006 -4.36722e-006 21.3585 64.8649 -12.477 -1.31651e-005 -3.13402e-006 -3 8.02916 -4.95144 0.697714 -36.5322 -5.32892 1.71293 -126.635 31.9755 60.4993 -3.3791e-005 3.99281e-006 1.76251e-006 -33.0151 50.7172 13.0273 -2.65176e-005 -3.63329e-006 3.0084 -8.02924 -4.95145 -0.697691 14.0365 74.005 166.044 180 7.01657e-015 179.639 170.811 60.216 -176.885 1.11796e-006 1.71788e-006 1.19715 -18.5304 66.9116 18.6573 8.13649 25.2327 -3.48773 -42.8801 66.7517 -135.811 4.54188e-006 -4.6773e-006 -0.179349 -6.05951 -69.395 -1.12018 6.72989e-006 -5.45177e-006 -1.42786 19.2021 67.7547 -19.3309 -8.13649 25.2327 3.48774 
52.2701 65.548 -0.429078 -3.75429 37.0628 2.20545 0.463041 2.5396 0.794438 0.89157 9.08789 1.513 0.875847 10.7326 1.50119 -32.7732 61.9169 20.3108 14.0113 -11.0962 -0.723977 26.4294 -4.50657 0.111162 125.699 21.6032 -70.9113 1.99674e-007 1.79674e-006 -4.36722e-006 21.3355 64.9211 -12.4852 -1.31651e-005 -3.13402e-006 -3 8.02916 -4.95144 0.697714 -36.4993 -5.31935 1.70128 -126.648 31.9774 60.5221 -3.3791e-005 3.99281e-006 1.76251e-006 -32.9112 50.7455 12.9814 -2.65176e-005 -3.63329e-006 3.0084 -8.02924 -4.95145 -0.697691 14.0552 74.002 166.037 180 7.01657e-015 179.637 170.84 60.3129 -176.899 1.11796e-006 1.71788e-006 1.20121 -18.5228 66.8983 18.6473 8.13649 25.2327 -3.48773 -42.8134 66.7469 -135.884 4.54188e-006 -4.6773e-006 -0.181051 -5.9842 -69.497 -1.0668 6.72989e-006 -5.45177e-006 -1.43323 19.1967 67.7454 -19.3232 -8.13649 25.2327 3.48774 
52.2576 65.4605 -0.500768 -3.7477 36.9272 2.22118 0.466317 2.54244 0.791422 0.898314 9.09359 1.50632 0.88269 10.7383 1.49437 -32.6733 61.9106 20.2419 14.014 -11.0904 -0.717352 26.4385 -4.53508 0.0783094 125.714 21.6082 -70.8979 1.99674e-007 1.79674e-006 -4.36722e-006 21.313 64.9766 -12.4936 -1.31651e-005 -3.13402e-006 -3 8.02916 -4.95144 0.697714 -36.4671 -5.30877 1.68872 -126.66 31.9806 60.5439 -3.3791e-005 3.99281e-006 1.76251e-006 -32.8083 50.7717 12.9353 -2.65176e-005 -3.63329e-006 3.0084 -8.02924 -4.95145 -0.697691 14.0896 74.0004 166.013 180 7.01657e-015 179.635 170.871 60.4103 -176.913 1.11796e-006 1.71788e-006 1.20536 -18.5153 66.8851 18.6373 8.13649 25.2327 -3.48773 -42.7488 66.7471 -135.957 4.54188e-006 -4.6773e-006 -0.182966 -5.90874 -69.5987 -1.01298 6.72989e-006 -5.45177e-006 -1.43865 19.1915 67.7362 -19.3155 -8.13649 25.2327 3.48774 
52.2447 65.3723 -0.574884 -3.73786 36.7881 2.2381 0.469237 2.54564 0.787742 0.90434 9.09999 1.49833 0.88883 10.7447 1.48626 -32.5718 61.9098 20.1731 14.0115 -11.0903 -0.711389 26.4487 -4.56244 0.0466147 125.726 21.6136 -70.8829 1.99674e-007 1.79674e-006 -4.36722e-006 21.291 65.0311 -12.5018 -1.31651e-005 -3.13402e-006 -3 8.02916 -4.95144 0.697714 -36.4359 -5.2971 1.67521 -126.67 31.985 60.5647 -3.3791e-005 3.99281e-006 1.76251e-006 -32.7069 50.7959 12.889 -2.65176e-005 -3.63329e-006 3.0084 -8.02924 -4.95145 -0.697691 14.1421 73.9999 165.97 180 7.01657e-015 179.633 170.902 60.5081 -176.928 1.11796e-006 1.71788e-006 1.20961 -18.5082 66.872 18.6274 8.13649 25.2327 -3.48773 -42.6868 66.7529 -136.03 4.54188e-006 -4.6773e-006 -0.185129 -5.83365 -69.6999 -0.959035 6.72989e-006 -5.45177e-006 -1.44412 19.1866 67.7273 -19.308 -8.13649 25.2327 3.48774 
